<svg xmlns="http://www.w3.org/2000/svg" width="192" height="192" viewBox="0 0 192 192" role="img" aria-labelledby="title desc">
  <title id="title">Study Coach AI</title>
  <desc id="desc">Blue app icon with a book and AI spark.</desc>
  <rect width="192" height="192" rx="42" fill="#2563eb"/>
  <rect x="42" y="53" width="49" height="86" rx="10" fill="#ffffff" opacity="0.96"/>
  <rect x="101" y="53" width="49" height="86" rx="10" fill="#dbeafe"/>
  <path d="M91 58v82M101 58v82" stroke="#1d4ed8" stroke-width="5" stroke-linecap="round"/>
  <path d="M56 75h22M56 92h22M56 109h18M115 75h20M115 92h16M115 109h22" stroke="#2563eb" stroke-width="6" stroke-linecap="round"/>
  <path d="M138 34l5 13 13 5-13 5-5 13-5-13-13-5 13-5 5-13z" fill="#facc15"/>
  <circle cx="58" cy="147" r="7" fill="#bfdbfe"/>
  <circle cx="134" cy="147" r="7" fill="#bfdbfe"/>
</svg>
